<svg xmlns="http://www.w3.org/2000/svg">
  <symbol id="btc" viewBox="0 0 32 32">
    <g fill="none" fill-rule="evenodd"><circle cx="16" cy="16" r="16" fill="#F7931A"/><path fill="#FFF" fill-rule="nonzero" d="M23.189 14.02c.314-2.096-1.283-3.223-3.465-3.975l.708-2.84-1.728-.43-.69 2.765c-.454-.114-.92-.22-1.385-.326l.695-2.783L15.596 6l-.708 2.839c-.376-.086-.746-.17-1.104-.26l.002-.009-2.384-.595-.46 1.846s1.283.294 1.256.312c.7.175.826.638.805 1.006l-.806 3.235c.048.012.11.03.18.057l-.183-.045-1.13 4.532c-.086.212-.303.531-.793.41.018.025-1.256-.313-1.256-.313l-.858 1.978 2.25.561c.418.105.828.215 1.231.318l-.715 2.872 1.727.43.708-2.84c.472.127.93.245 1.378.357l-.706 2.828 1.728.43.715-2.866c2.948.558 5.164.333 6.097-2.333.752-2.146-.037-3.385-1.588-4.192 1.13-.26 1.98-1.003 2.207-2.538zm-3.95 5.538c-.533 2.147-4.148.986-5.32.695l.95-3.805c1.172.293 4.929.872 4.37 3.11zm.535-5.569c-.487 1.953-3.495.96-4.47.717l.86-3.45c.975.243 4.118.696 3.61 2.733z"/></g>
  </symbol>
  <symbol id="doge" viewBox="0 0 32 32">
    <g fill="none" fill-rule="evenodd"><circle cx="16" cy="16" r="16" fill="#C3A634"/><path fill="#FFF" d="M13.248 14.61h4.314v2.286h-4.314v4.818h2.721c1.077 0 1.958-.145 2.644-.437.686-.291 1.224-.694 1.615-1.21.39-.515.656-1.12.796-1.815.14-.695.21-1.445.21-2.252 0-.807-.07-1.557-.21-2.252a4.396 4.396 0 0 0-.796-1.815c-.391-.516-.93-.919-1.615-1.21-.686-.292-1.567-.437-2.644-.437h-2.721v4.325zm-2.766 2.286H9v-2.285h1.482V8h6.549c1.21 0 2.257.21 3.142.627.885.419 1.607.99 2.168 1.715.56.724.977 1.572 1.25 2.543.273.971.409 2.01.409 3.115a11.47 11.47 0 0 1-.41 3.115c-.272.97-.689 1.819-1.25 2.543-.56.725-1.282 1.296-2.167 1.715-.885.418-1.933.627-3.142.627h-6.549v-7.104z"/></g>
  </symbol>
  <symbol id="eth" viewBox="0 0 32 32">
    <g fill="none" fill-rule="evenodd"><circle cx="16" cy="16" r="16" fill="#627EEA"/><g fill="#FFF" fill-rule="nonzero"><path fill-opacity=".602" d="M16.498 4v8.87l7.497 3.35z"/><path d="M16.498 4L9 16.22l7.498-3.35z"/><path fill-opacity=".602" d="M16.498 21.968v6.027L24 17.616z"/><path d="M16.498 27.995v-6.028L9 17.616z"/><path fill-opacity=".2" d="M16.498 20.573l7.497-4.353-7.497-3.348z"/><path fill-opacity=".602" d="M9 16.22l7.498 4.353v-7.701z"/></g></g>
  </symbol>
  <symbol id="ltc" viewBox="0 0 32 32">
    <g fill="none" fill-rule="evenodd">
      <circle cx="16" cy="16" r="16" fill="#BFBBBB"/>
      <polygon fill="#FFF" points="10.427 19.214 9 19.768 9.688 17.009 11.132 16.429 13.213 8 18.342 8 16.823 14.196 18.233 13.625 17.553 16.375 16.126 16.946 15.278 20.429 23 20.429 22.127 24 9.252 24"/>
    </g>
  </symbol>
  <symbol id="mxr" viewBox="0 0 32 32">
    <g fill="none" fill-rule="evenodd"><circle cx="16" cy="16" r="16" fill="#F60"/><path fill="#FFF" fill-rule="nonzero" d="M15.97 5.235c5.985 0 10.825 4.84 10.825 10.824a11.07 11.07 0 0 1-.558 3.432h-3.226v-9.094l-7.04 7.04-7.04-7.04v9.094H5.704a11.07 11.07 0 0 1-.557-3.432c0-5.984 4.84-10.824 10.824-10.824zM14.358 19.02L16 20.635l1.613-1.614 3.051-3.08v5.72H25.211a10.806 10.806 0 0 1-9.24 5.192c-3.902 0-7.334-2.082-9.24-5.192h4.546v-5.72l3.08 3.08z"/></g>
  </symbol>
</svg>
